<?xml version="1.0"?>
<svg xmlns="http://www.w3.org/2000/svg" xmlns:xlink="http://www.w3.org/1999/xlink" xmlns:svgjs="http://svgjs.com/svgjs" version="1.1" width="512px" height="512px" x="0" y="0" viewBox="0 0 512 512" style="enable-background:new 0 0 512 512" xml:space="preserve" class=""><g transform="matrix(1,0,0,1,0,0)"><path d="m288.94 331.755c3.668 1.921 8.202.505 10.124-3.165 5.121-9.778 7.828-20.805 7.828-31.889 0-38.016-30.928-68.945-68.944-68.945h-17.558c-6.869 0-12.458-5.588-12.458-12.457s5.588-12.458 12.458-12.458h17.558c5.022 0 9.532 2.99 11.49 7.617 6.067 14.343 22.67 21.078 37.015 15.011 14.343-6.067 21.077-22.671 15.011-37.014-8.115-19.187-24.322-33.53-44.05-39.313v-9.84c0-15.574-12.67-28.244-28.244-28.244s-28.244 12.67-28.244 28.244v9.85c-29.011 8.537-49.48 35.427-49.48 66.147 0 38.016 30.929 68.944 68.945 68.944h17.558c6.869 0 12.457 5.588 12.457 12.458 0 6.869-5.588 12.457-12.457 12.457h-17.559c-5.179 0-9.739-3.115-11.62-7.937-5.66-14.509-22.067-21.711-36.575-16.051-14.509 5.658-21.71 22.065-16.052 36.575 7.876 20.196 24.362 35.217 44.782 41.144v9.809c0 15.574 12.67 28.244 28.244 28.244s28.244-12.67 28.244-28.244v-9.851c4.952-1.459 9.726-3.475 14.254-6.023 3.61-2.031 4.889-6.604 2.858-10.214s-6.604-4.89-10.214-2.858c-4.958 2.79-10.293 4.764-15.855 5.867-3.512.696-6.042 3.777-6.042 7.357v15.723c0 7.303-5.941 13.244-13.244 13.244s-13.244-5.941-13.244-13.244v-15.703c0-3.589-2.542-6.675-6.065-7.361-18.122-3.533-32.979-15.996-39.742-33.338-2.653-6.804.724-14.498 7.527-17.151 6.804-2.652 14.497.724 17.15 7.527 4.143 10.623 14.189 17.486 25.594 17.486h17.558c15.14 0 27.457-12.317 27.457-27.457s-12.317-27.458-27.457-27.458h-17.558c-29.745 0-53.945-24.199-53.945-53.944 0-25.675 18.268-47.93 43.438-52.917 3.512-.696 6.042-3.777 6.042-7.357v-15.723c0-7.303 5.941-13.244 13.244-13.244s13.244 5.941 13.244 13.244v15.719c0 3.582 2.533 6.665 6.048 7.358 17.549 3.463 32.198 15.396 39.187 31.919 2.845 6.726-.313 14.512-7.039 17.356s-14.511-.313-17.356-7.04c-4.31-10.189-14.243-16.773-25.305-16.773h-17.558c-15.14 0-27.458 12.317-27.458 27.458 0 15.14 12.317 27.457 27.458 27.457h17.558c29.745 0 53.944 24.2 53.944 53.945 0 8.794-2.058 17.182-6.116 24.93-1.922 3.669-.505 8.201 3.164 10.123z" fill="#28fb28" data-original="#000000" class=""/><path d="m357.04 382.826c3.06 2.793 7.804 2.577 10.596-.482 31.583-34.596 48.978-79.465 48.978-126.344 0-103.357-84.087-187.445-187.445-187.445s-187.446 84.088-187.446 187.445 84.087 187.445 187.445 187.445c40.425 0 78.924-12.667 111.334-36.631 3.331-2.463 4.034-7.159 1.571-10.49-2.462-3.331-7.158-4.033-10.489-1.572-29.811 22.042-65.226 33.693-102.417 33.693-95.086 0-172.445-77.358-172.445-172.445s77.36-172.445 172.446-172.445c95.087 0 172.445 77.358 172.445 172.445 0 43.127-16.001 84.405-45.056 116.23-2.792 3.06-2.576 7.803.483 10.596z" fill="#28fb28" data-original="#000000" class=""/><path d="m282.832 26.832h-53.664c-15.711 0-31.411 1.6-46.664 4.756-4.056.839-6.664 4.808-5.825 8.864.839 4.057 4.809 6.664 8.864 5.825 14.254-2.95 28.932-4.445 43.625-4.445 118.163 0 214.168 95.59 214.168 214.168 0 119.545-96.989 214.168-214.168 214.168-118.364 0-214.168-95.788-214.168-214.168 0-90.431 56.319-169.291 138.319-200.351 3.874-1.467 5.824-5.797 4.357-9.67s-5.797-5.827-9.67-4.357c-87.659 33.204-148.006 117.518-148.006 214.378 0 126.654 102.496 229.168 229.168 229.168h53.664c126.655 0 229.168-102.497 229.168-229.168 0-126.655-102.496-229.168-229.168-229.168zm192.92 322.427h-37.115c3.669-8.232 6.843-16.678 9.508-25.302h37.901c-2.883 8.65-6.321 17.099-10.294 25.302zm-25.465 40.302h-34.828c5.844-8.115 11.123-16.565 15.818-25.301h36.45c-5.169 8.792-10.99 17.246-17.44 25.301zm46.713-133.561c0 4.239-.123 8.459-.366 12.656h-38.639c.227-4.199.341-8.419.341-12.656s-.115-8.457-.341-12.656h38.639c.243 4.197.366 8.417.366 12.656zm-40.305-27.656c-1.022-8.552-2.518-16.996-4.473-25.301h38.216c2.1 8.291 3.706 16.737 4.803 25.301zm-4.473 80.614c1.955-8.305 3.451-16.749 4.473-25.301h38.546c-1.097 8.564-2.704 17.01-4.803 25.301zm-4.077-120.916c-2.665-8.624-5.839-17.07-9.508-25.302h37.115c3.974 8.203 7.411 16.652 10.295 25.302zm-16.868-40.301c-4.694-8.736-9.974-17.186-15.818-25.301h34.828c6.45 8.054 12.27 16.508 17.439 25.301zm-47.241-80.603h-24.952c-12.858-8.885-26.52-16.378-40.797-22.403 23.117 3.829 45.275 11.397 65.749 22.403zm-5.547 15h29.487c10.442 7.55 20.18 16.025 29.122 25.302h-33.415c-7.719-9.039-16.177-17.534-25.194-25.302zm-19.405 362.724h24.952c-20.474 11.006-42.632 18.574-65.749 22.403 14.277-6.024 27.939-13.518 40.797-22.403zm48.892-15h-29.487c9.005-7.758 17.464-16.251 25.194-25.302h33.415c-8.943 9.278-18.68 17.752-29.122 25.302z" fill="#28fb28" data-original="#000000" class=""/></g></svg>
