<?xml version="1.0"?>
<svg xmlns="http://www.w3.org/2000/svg" xmlns:xlink="http://www.w3.org/1999/xlink" xmlns:svgjs="http://svgjs.com/svgjs" version="1.1" width="512px" height="512px" x="0" y="0" viewBox="0 0 128 128" style="enable-background:new 0 0 512 512" xml:space="preserve" class=""><g><path id="Down_Arrow_9_" d="m64 104c-1.023 0-2.047-.391-2.828-1.172l-40-40c-1.563-1.563-1.563-4.094 0-5.656s4.094-1.563 5.656 0l37.172 37.172 37.172-37.172c1.563-1.563 4.094-1.563 5.656 0s1.563 4.094 0 5.656l-40 40c-.781.781-1.805 1.172-2.828 1.172zm2.828-33.172 40-40c1.563-1.563 1.563-4.094 0-5.656s-4.094-1.563-5.656 0l-37.172 37.172-37.172-37.172c-1.563-1.563-4.094-1.563-5.656 0s-1.563 4.094 0 5.656l40 40c.781.781 1.805 1.172 2.828 1.172s2.047-.391 2.828-1.172z" fill="#28fb28" data-original="#000000" class=""/></g></svg>
