<svg fill="none" height="512" viewBox="0 0 32 32" width="512" xmlns="http://www.w3.org/2000/svg"><g fill="rgb(0,0,0)"><path d="m16 9c-.5523 0-1-.44772-1-1v-5c0-.55228.4477-1 1-1s1 .44772 1 1v5c0 .55228-.4477 1-1 1z"/><path d="m11 8c0 .55228.4477 1 1 1s1-.44772 1-1v-2c0-.55228-.4477-1-1-1s-1 .44772-1 1z"/><path d="m15.0001 14.9892c-1.0935.346-2.0001 1.2482-2.0001 2.5108v.8333c0 1.6358 1.5216 2.6667 3 2.6667.7307 0 1 .4614 1 .6667v.8333c0 .2052-.2693.6667-1 .6667s-1-.4615-1-.6667c0-.5523-.4477-1-1-1s-1 .4477-1 1c0 1.2626.9066 2.1648 2.0001 2.5108.0057.5473.4512.9892.9999.9892s.9942-.4419.9999-.9892c1.0935-.346 2.0001-1.2482 2.0001-2.5108v-.8333c0-1.6358-1.5216-2.6667-3-2.6667-.7307 0-1-.4614-1-.6667v-.8333c0-.2052.2693-.6667 1-.6667s1 .4615 1 .6667c0 .5523.4477 1 1 1s1-.4477 1-1c0-1.2626-.9066-2.1648-2.0001-2.5108-.0057-.5473-.4512-.9892-.9999-.9892s-.9942.4419-.9999.9892z"/><path clip-rule="evenodd" d="m6 20c0-5.5228 4.4772-10 10-10s10 4.4772 10 10-4.4772 10-10 10-10-4.4772-10-10zm10-8c-4.4183 0-8 3.5817-8 8s3.5817 8 8 8 8-3.5817 8-8-3.5817-8-8-8z" fill-rule="evenodd"/><path d="m19 8c0 .55228.4477 1 1 1s1-.44772 1-1v-2c0-.55228-.4477-1-1-1s-1 .44772-1 1z"/></g></svg>